<?xml version="1.0" encoding="UTF-8" standalone="no"?>
<!DOCTYPE svg PUBLIC "-//W3C//DTD SVG 1.1//EN" "http://www.w3.org/Graphics/SVG/1.1/DTD/svg11.dtd">
<svg width="100%" height="100%" viewBox="0 0 1280 1280" version="1.1" xmlns="http://www.w3.org/2000/svg" xmlns:xlink="http://www.w3.org/1999/xlink" xml:space="preserve" xmlns:serif="http://www.serif.com/" style="fill-rule:evenodd;clip-rule:evenodd;stroke-linejoin:round;stroke-miterlimit:2;">
    <g transform="matrix(1.25,0,0,1.25,0,0)">
        <path d="M315.666,359.487C314.277,344.741 314.05,344.7 314.576,343.534C315.059,342.463 320.94,342.479 321.5,342.48C706.248,343.515 706.901,341.166 708.884,343.11C711.118,345.3 683.892,623.604 674.216,744.477C673.851,749.027 669.153,748.521 659.424,751.239C647.759,754.497 519.944,790.197 513.57,791.799C509.678,792.777 407.792,762.988 363.386,750.938C354.162,748.434 350.32,751.075 349.5,741.5C349.143,737.336 345.219,691.554 344.991,689.457C344.128,681.534 334.963,577.186 334.889,576.461C334.029,568.045 316.113,363.67 315.666,359.487ZM617.103,634.469C619.553,600.418 625.958,527.672 625.958,527.5C625.96,524.102 624.047,524.925 597.498,524.891C487.368,524.749 448.668,525.404 447.531,524.455C445.114,522.44 441.957,482.184 441.667,478.488C441.317,474.03 444.36,475.886 497.501,475.838C630.319,475.716 630.873,475.851 631.528,474.515C632.566,472.399 635.872,426.857 635.886,426.498C636.019,423.063 629.227,424.047 621.501,424.054L442.5,424.06C389.49,424.067 386.435,422.036 386.758,426.488C387.444,435.928 395.192,518.69 395.386,520.51C395.611,522.628 399.988,573.178 400.516,574.493C401.242,576.304 402.072,575.608 469.499,575.738C570.035,575.931 571.445,574.971 571.903,577.41C572.477,580.474 569.824,606.026 569.567,608.508C566.699,636.134 568.814,638.217 563.316,640.007C542.348,646.831 518.355,653.162 514.417,654.202C511.144,655.065 510.979,654.888 473.424,643.749C458.736,639.392 456.872,640.154 456.292,634.519C452.923,601.783 453.214,600.391 450.509,600.362C446.828,600.322 421.151,600.044 404.493,600.421C401.282,600.494 402.494,602.514 406.056,640.538C408.242,663.861 409.49,677.061 410.37,678.604C411.173,680.011 490.719,700.568 503.537,704.39C515.844,708.058 515.975,705.664 528.458,702.341C535.118,700.569 602.596,682.608 611.565,679.666C614.447,678.721 613.239,675.266 617.103,634.469Z" style="fill:white;"/>
    </g>
    <g transform="matrix(1.25,0,0,1.25,0,0)">
        <path d="M575.893,289.502C576.139,272.905 577.069,272.819 576.221,271.671C575.063,270.101 572.747,274.784 570.885,277.748C569.956,279.227 560.234,294.697 559.068,296.106C557.597,297.881 556.883,296.12 542.327,272.654C541.171,270.791 539.818,272.374 539.817,272.571C539.781,279.205 540.253,279.108 540.328,288.501C540.46,304.964 541.354,307.734 536.507,307.826C517.247,308.193 516.714,308.167 516.216,306.619C515.848,305.477 515.937,235.858 516.101,234.398C516.246,233.115 516.653,231.893 539.494,232.69C545.361,232.894 555.609,256.9 557.647,258.308C559.581,259.643 558.772,257.111 573.998,233.898C575.521,231.576 598.899,232.052 599.875,233.132C601.042,234.424 600.406,306.123 599.915,306.771C598.877,308.139 598.563,308.098 578.482,307.873C575.128,307.836 575.897,303.453 575.893,289.502Z" style="fill:white;"/>
    </g>
    <g transform="matrix(1.25,0,0,1.25,0,0)">
        <path d="M423.89,237.497C423.894,307.178 423.396,307.21 423.292,307.308C422.803,307.769 400.176,309.175 399.416,306.529C398.7,304.035 400.341,284.269 398.322,282.769C397.961,282.501 377.271,281.295 375.983,283.661C375.157,285.179 376.959,306.784 374.586,307.674C374.161,307.834 352.833,308.509 351.603,307.387C350.427,306.314 350.809,294.649 350.689,236.5C350.678,231.391 353.068,232.176 370.498,232.362C374.3,232.403 375.841,231.635 375.847,235.487C375.871,251.274 374.751,257.639 378.491,257.692C397.528,257.962 397.936,258.046 398.696,256.617C400.165,253.855 397.411,233.38 400.476,232.427C400.897,232.296 421.337,232.174 422.487,232.534C424.807,233.261 423.63,234.131 423.89,237.497Z" style="fill:white;"/>
    </g>
    <g transform="matrix(1.25,0,0,1.25,0,0)">
        <path d="M435.389,236.499C435.854,232.083 437.091,232.448 441.5,232.491C453.575,232.611 453.782,232.482 467.5,232.485C503.103,232.493 504.248,232.032 504.654,234.469C504.833,235.547 504.78,255.05 504.696,255.54C504.031,259.393 486.242,256.573 483.559,257.66C480.39,258.944 483.403,303.415 481.896,306.725C480.956,308.788 459.291,307.953 458.621,307.349C456.611,305.536 458.144,270.42 457.487,259.502C457.276,256.002 444.412,257.853 437.517,257.379C434.584,257.177 435.353,251.892 435.389,236.499Z" style="fill:white;"/>
    </g>
    <g transform="matrix(1.25,0,0,1.25,0,0)">
        <path d="M638.364,245.501C638.302,281.263 637.804,282.774 640.447,282.883C653.441,283.42 673.276,281.52 673.848,284.386C674.032,285.309 674.009,305.759 673.718,306.588C673.134,308.248 672.446,307.853 622.498,307.802C622.037,307.801 613.604,308.831 613.498,305.5C613.088,292.618 613.512,241.101 613.558,235.501C613.592,231.391 617.705,232.326 634.501,232.323C639.881,232.322 638.288,238.108 638.364,245.501Z" style="fill:white;"/>
    </g>
</svg>
